<mxfile host="app.diagrams.net" agent="Mozilla/5.0 (Windows NT 10.0; Win64; x64) AppleWebKit/537.36 (KHTML, like Gecko) Chrome/140.0.0.0 Safari/537.36" version="28.2.5" pages="4">
  <diagram id="S7v8jAoz6muDklejru6x" name="PropMan">
    <mxGraphModel dx="1603" dy="865" grid="0" gridSize="10" guides="1" tooltips="1" connect="1" arrows="1" fold="1" page="1" pageScale="1" pageWidth="850" pageHeight="1100" math="0" shadow="0">
      <root>
        <mxCell id="0" />
        <mxCell id="1" parent="0" />
        <mxCell id="M1KTCv-KqnDTmAe1JQLk-1" value="Property &amp;lt;&amp;lt;abstract&amp;gt;&amp;gt;" style="swimlane;fontStyle=1;align=center;verticalAlign=top;childLayout=stackLayout;horizontal=1;startSize=26;horizontalStack=0;resizeParent=1;resizeParentMax=0;resizeLast=0;collapsible=1;marginBottom=0;whiteSpace=wrap;html=1;" parent="1" vertex="1">
          <mxGeometry x="290" y="280" width="290" height="86" as="geometry">
            <mxRectangle x="350" y="250" width="100" height="30" as="alternateBounds" />
          </mxGeometry>
        </mxCell>
        <mxCell id="2h4ST7UPdL0RUoZ8Nv_j-27" value="+ address: Address" style="text;strokeColor=none;fillColor=none;align=left;verticalAlign=top;spacingLeft=4;spacingRight=4;overflow=hidden;rotatable=0;points=[[0,0.5],[1,0.5]];portConstraint=eastwest;whiteSpace=wrap;html=1;" vertex="1" parent="M1KTCv-KqnDTmAe1JQLk-1">
          <mxGeometry y="26" width="290" height="26" as="geometry" />
        </mxCell>
        <mxCell id="2h4ST7UPdL0RUoZ8Nv_j-62" value="+ computeRent(): double" style="text;strokeColor=none;fillColor=none;align=left;verticalAlign=top;spacingLeft=4;spacingRight=4;overflow=hidden;rotatable=0;points=[[0,0.5],[1,0.5]];portConstraint=eastwest;whiteSpace=wrap;html=1;" vertex="1" parent="M1KTCv-KqnDTmAe1JQLk-1">
          <mxGeometry y="52" width="290" height="26" as="geometry" />
        </mxCell>
        <mxCell id="M1KTCv-KqnDTmAe1JQLk-3" value="" style="line;strokeWidth=1;fillColor=none;align=left;verticalAlign=middle;spacingTop=-1;spacingLeft=3;spacingRight=3;rotatable=0;labelPosition=right;points=[];portConstraint=eastwest;strokeColor=inherit;" parent="M1KTCv-KqnDTmAe1JQLk-1" vertex="1">
          <mxGeometry y="78" width="290" height="8" as="geometry" />
        </mxCell>
        <mxCell id="2h4ST7UPdL0RUoZ8Nv_j-1" value="Address" style="swimlane;fontStyle=1;align=center;verticalAlign=top;childLayout=stackLayout;horizontal=1;startSize=26;horizontalStack=0;resizeParent=1;resizeParentMax=0;resizeLast=0;collapsible=1;marginBottom=0;whiteSpace=wrap;html=1;" vertex="1" parent="1">
          <mxGeometry x="40" y="80" width="160" height="164" as="geometry" />
        </mxCell>
        <mxCell id="2h4ST7UPdL0RUoZ8Nv_j-31" value="+ id: String" style="text;strokeColor=none;fillColor=none;align=left;verticalAlign=top;spacingLeft=4;spacingRight=4;overflow=hidden;rotatable=0;points=[[0,0.5],[1,0.5]];portConstraint=eastwest;whiteSpace=wrap;html=1;" vertex="1" parent="2h4ST7UPdL0RUoZ8Nv_j-1">
          <mxGeometry y="26" width="160" height="26" as="geometry" />
        </mxCell>
        <mxCell id="2h4ST7UPdL0RUoZ8Nv_j-2" value="+ street: String" style="text;strokeColor=none;fillColor=none;align=left;verticalAlign=top;spacingLeft=4;spacingRight=4;overflow=hidden;rotatable=0;points=[[0,0.5],[1,0.5]];portConstraint=eastwest;whiteSpace=wrap;html=1;" vertex="1" parent="2h4ST7UPdL0RUoZ8Nv_j-1">
          <mxGeometry y="52" width="160" height="26" as="geometry" />
        </mxCell>
        <mxCell id="2h4ST7UPdL0RUoZ8Nv_j-28" value="+ city: String" style="text;strokeColor=none;fillColor=none;align=left;verticalAlign=top;spacingLeft=4;spacingRight=4;overflow=hidden;rotatable=0;points=[[0,0.5],[1,0.5]];portConstraint=eastwest;whiteSpace=wrap;html=1;" vertex="1" parent="2h4ST7UPdL0RUoZ8Nv_j-1">
          <mxGeometry y="78" width="160" height="26" as="geometry" />
        </mxCell>
        <mxCell id="2h4ST7UPdL0RUoZ8Nv_j-29" value="+ state: String" style="text;strokeColor=none;fillColor=none;align=left;verticalAlign=top;spacingLeft=4;spacingRight=4;overflow=hidden;rotatable=0;points=[[0,0.5],[1,0.5]];portConstraint=eastwest;whiteSpace=wrap;html=1;" vertex="1" parent="2h4ST7UPdL0RUoZ8Nv_j-1">
          <mxGeometry y="104" width="160" height="26" as="geometry" />
        </mxCell>
        <mxCell id="2h4ST7UPdL0RUoZ8Nv_j-30" value="+ zip: String" style="text;strokeColor=none;fillColor=none;align=left;verticalAlign=top;spacingLeft=4;spacingRight=4;overflow=hidden;rotatable=0;points=[[0,0.5],[1,0.5]];portConstraint=eastwest;whiteSpace=wrap;html=1;" vertex="1" parent="2h4ST7UPdL0RUoZ8Nv_j-1">
          <mxGeometry y="130" width="160" height="26" as="geometry" />
        </mxCell>
        <mxCell id="2h4ST7UPdL0RUoZ8Nv_j-3" value="" style="line;strokeWidth=1;fillColor=none;align=left;verticalAlign=middle;spacingTop=-1;spacingLeft=3;spacingRight=3;rotatable=0;labelPosition=right;points=[];portConstraint=eastwest;strokeColor=inherit;" vertex="1" parent="2h4ST7UPdL0RUoZ8Nv_j-1">
          <mxGeometry y="156" width="160" height="8" as="geometry" />
        </mxCell>
        <mxCell id="2h4ST7UPdL0RUoZ8Nv_j-5" value="House" style="swimlane;fontStyle=1;align=center;verticalAlign=top;childLayout=stackLayout;horizontal=1;startSize=26;horizontalStack=0;resizeParent=1;resizeParentMax=0;resizeLast=0;collapsible=1;marginBottom=0;whiteSpace=wrap;html=1;" vertex="1" parent="1">
          <mxGeometry x="70" y="550" width="200" height="86" as="geometry" />
        </mxCell>
        <mxCell id="2h4ST7UPdL0RUoZ8Nv_j-17" value="+ lotSize: double" style="text;strokeColor=none;fillColor=none;align=left;verticalAlign=top;spacingLeft=4;spacingRight=4;overflow=hidden;rotatable=0;points=[[0,0.5],[1,0.5]];portConstraint=eastwest;whiteSpace=wrap;html=1;" vertex="1" parent="2h4ST7UPdL0RUoZ8Nv_j-5">
          <mxGeometry y="26" width="200" height="26" as="geometry" />
        </mxCell>
        <mxCell id="2h4ST7UPdL0RUoZ8Nv_j-63" value="+ computeRent(): 0.1 * lotSize" style="text;strokeColor=none;fillColor=none;align=left;verticalAlign=top;spacingLeft=4;spacingRight=4;overflow=hidden;rotatable=0;points=[[0,0.5],[1,0.5]];portConstraint=eastwest;whiteSpace=wrap;html=1;" vertex="1" parent="2h4ST7UPdL0RUoZ8Nv_j-5">
          <mxGeometry y="52" width="200" height="26" as="geometry" />
        </mxCell>
        <mxCell id="2h4ST7UPdL0RUoZ8Nv_j-7" value="" style="line;strokeWidth=1;fillColor=none;align=left;verticalAlign=middle;spacingTop=-1;spacingLeft=3;spacingRight=3;rotatable=0;labelPosition=right;points=[];portConstraint=eastwest;strokeColor=inherit;" vertex="1" parent="2h4ST7UPdL0RUoZ8Nv_j-5">
          <mxGeometry y="78" width="200" height="8" as="geometry" />
        </mxCell>
        <mxCell id="2h4ST7UPdL0RUoZ8Nv_j-13" value="Trailer" style="swimlane;fontStyle=1;align=center;verticalAlign=top;childLayout=stackLayout;horizontal=1;startSize=26;horizontalStack=0;resizeParent=1;resizeParentMax=0;resizeLast=0;collapsible=1;marginBottom=0;whiteSpace=wrap;html=1;" vertex="1" parent="1">
          <mxGeometry x="607" y="550" width="160" height="86" as="geometry" />
        </mxCell>
        <mxCell id="2h4ST7UPdL0RUoZ8Nv_j-14" value="+ parkAddress: Address" style="text;strokeColor=none;fillColor=none;align=left;verticalAlign=top;spacingLeft=4;spacingRight=4;overflow=hidden;rotatable=0;points=[[0,0.5],[1,0.5]];portConstraint=eastwest;whiteSpace=wrap;html=1;" vertex="1" parent="2h4ST7UPdL0RUoZ8Nv_j-13">
          <mxGeometry y="26" width="160" height="26" as="geometry" />
        </mxCell>
        <mxCell id="2h4ST7UPdL0RUoZ8Nv_j-66" value="+ computeRent(): 500" style="text;strokeColor=none;fillColor=none;align=left;verticalAlign=top;spacingLeft=4;spacingRight=4;overflow=hidden;rotatable=0;points=[[0,0.5],[1,0.5]];portConstraint=eastwest;whiteSpace=wrap;html=1;" vertex="1" parent="2h4ST7UPdL0RUoZ8Nv_j-13">
          <mxGeometry y="52" width="160" height="26" as="geometry" />
        </mxCell>
        <mxCell id="2h4ST7UPdL0RUoZ8Nv_j-15" value="" style="line;strokeWidth=1;fillColor=none;align=left;verticalAlign=middle;spacingTop=-1;spacingLeft=3;spacingRight=3;rotatable=0;labelPosition=right;points=[];portConstraint=eastwest;strokeColor=inherit;" vertex="1" parent="2h4ST7UPdL0RUoZ8Nv_j-13">
          <mxGeometry y="78" width="160" height="8" as="geometry" />
        </mxCell>
        <mxCell id="2h4ST7UPdL0RUoZ8Nv_j-23" value="" style="endArrow=classic;html=1;rounded=0;entryX=0.364;entryY=0.792;entryDx=0;entryDy=0;entryPerimeter=0;" edge="1" parent="1" target="M1KTCv-KqnDTmAe1JQLk-3">
          <mxGeometry width="50" height="50" relative="1" as="geometry">
            <mxPoint x="180" y="545" as="sourcePoint" />
            <mxPoint x="380" y="380" as="targetPoint" />
          </mxGeometry>
        </mxCell>
        <mxCell id="2h4ST7UPdL0RUoZ8Nv_j-24" value="" style="endArrow=classic;html=1;rounded=0;exitX=0.463;exitY=-0.041;exitDx=0;exitDy=0;exitPerimeter=0;entryX=0.522;entryY=1.325;entryDx=0;entryDy=0;entryPerimeter=0;" edge="1" parent="1" source="2h4ST7UPdL0RUoZ8Nv_j-9" target="M1KTCv-KqnDTmAe1JQLk-3">
          <mxGeometry width="50" height="50" relative="1" as="geometry">
            <mxPoint x="431" y="310" as="sourcePoint" />
            <mxPoint x="440" y="400" as="targetPoint" />
          </mxGeometry>
        </mxCell>
        <mxCell id="2h4ST7UPdL0RUoZ8Nv_j-25" value="" style="endArrow=classic;html=1;rounded=0;exitX=0.353;exitY=0;exitDx=0;exitDy=0;exitPerimeter=0;" edge="1" parent="1" source="2h4ST7UPdL0RUoZ8Nv_j-13">
          <mxGeometry width="50" height="50" relative="1" as="geometry">
            <mxPoint x="430" y="360" as="sourcePoint" />
            <mxPoint x="504" y="362" as="targetPoint" />
          </mxGeometry>
        </mxCell>
        <mxCell id="2h4ST7UPdL0RUoZ8Nv_j-32" value="TrailerPark" style="swimlane;fontStyle=1;align=center;verticalAlign=top;childLayout=stackLayout;horizontal=1;startSize=26;horizontalStack=0;resizeParent=1;resizeParentMax=0;resizeLast=0;collapsible=1;marginBottom=0;whiteSpace=wrap;html=1;" vertex="1" parent="1">
          <mxGeometry x="617" y="681" width="160" height="86" as="geometry" />
        </mxCell>
        <mxCell id="2h4ST7UPdL0RUoZ8Nv_j-33" value="+ parkId: String" style="text;strokeColor=none;fillColor=none;align=left;verticalAlign=top;spacingLeft=4;spacingRight=4;overflow=hidden;rotatable=0;points=[[0,0.5],[1,0.5]];portConstraint=eastwest;whiteSpace=wrap;html=1;" vertex="1" parent="2h4ST7UPdL0RUoZ8Nv_j-32">
          <mxGeometry y="26" width="160" height="26" as="geometry" />
        </mxCell>
        <mxCell id="2h4ST7UPdL0RUoZ8Nv_j-34" value="+ address: Address" style="text;strokeColor=none;fillColor=none;align=left;verticalAlign=top;spacingLeft=4;spacingRight=4;overflow=hidden;rotatable=0;points=[[0,0.5],[1,0.5]];portConstraint=eastwest;whiteSpace=wrap;html=1;" vertex="1" parent="2h4ST7UPdL0RUoZ8Nv_j-32">
          <mxGeometry y="52" width="160" height="26" as="geometry" />
        </mxCell>
        <mxCell id="2h4ST7UPdL0RUoZ8Nv_j-38" value="" style="line;strokeWidth=1;fillColor=none;align=left;verticalAlign=middle;spacingTop=-1;spacingLeft=3;spacingRight=3;rotatable=0;labelPosition=right;points=[];portConstraint=eastwest;strokeColor=inherit;" vertex="1" parent="2h4ST7UPdL0RUoZ8Nv_j-32">
          <mxGeometry y="78" width="160" height="8" as="geometry" />
        </mxCell>
        <mxCell id="2h4ST7UPdL0RUoZ8Nv_j-40" value="" style="endArrow=none;html=1;rounded=0;entryX=0.434;entryY=1.575;entryDx=0;entryDy=0;entryPerimeter=0;exitX=0.38;exitY=-0.028;exitDx=0;exitDy=0;exitPerimeter=0;" edge="1" parent="1" source="2h4ST7UPdL0RUoZ8Nv_j-32" target="2h4ST7UPdL0RUoZ8Nv_j-15">
          <mxGeometry width="50" height="50" relative="1" as="geometry">
            <mxPoint x="430" y="440" as="sourcePoint" />
            <mxPoint x="650.3999999999999" y="572.1879999999999" as="targetPoint" />
          </mxGeometry>
        </mxCell>
        <mxCell id="2h4ST7UPdL0RUoZ8Nv_j-46" value="" style="endArrow=none;html=1;rounded=0;exitX=0.5;exitY=1;exitDx=0;exitDy=0;" edge="1" parent="1" source="ntyKxeS2Ozoo8PNVDgXu-2">
          <mxGeometry width="50" height="50" relative="1" as="geometry">
            <mxPoint x="422.9200000000001" y="195.13599999999997" as="sourcePoint" />
            <mxPoint x="423" y="277" as="targetPoint" />
          </mxGeometry>
        </mxCell>
        <mxCell id="2h4ST7UPdL0RUoZ8Nv_j-9" value="Condominium" style="swimlane;fontStyle=1;align=center;verticalAlign=top;childLayout=stackLayout;horizontal=1;startSize=26;horizontalStack=0;resizeParent=1;resizeParentMax=0;resizeLast=0;collapsible=1;marginBottom=0;whiteSpace=wrap;html=1;" vertex="1" parent="1">
          <mxGeometry x="348" y="550" width="210" height="86" as="geometry" />
        </mxCell>
        <mxCell id="2h4ST7UPdL0RUoZ8Nv_j-18" value="+ numOfFloors: int" style="text;strokeColor=none;fillColor=none;align=left;verticalAlign=top;spacingLeft=4;spacingRight=4;overflow=hidden;rotatable=0;points=[[0,0.5],[1,0.5]];portConstraint=eastwest;whiteSpace=wrap;html=1;" vertex="1" parent="2h4ST7UPdL0RUoZ8Nv_j-9">
          <mxGeometry y="26" width="210" height="26" as="geometry" />
        </mxCell>
        <mxCell id="2h4ST7UPdL0RUoZ8Nv_j-65" value="+ computeRent(): 400 * numOfFloor" style="text;strokeColor=none;fillColor=none;align=left;verticalAlign=top;spacingLeft=4;spacingRight=4;overflow=hidden;rotatable=0;points=[[0,0.5],[1,0.5]];portConstraint=eastwest;whiteSpace=wrap;html=1;" vertex="1" parent="2h4ST7UPdL0RUoZ8Nv_j-9">
          <mxGeometry y="52" width="210" height="26" as="geometry" />
        </mxCell>
        <mxCell id="2h4ST7UPdL0RUoZ8Nv_j-11" value="" style="line;strokeWidth=1;fillColor=none;align=left;verticalAlign=middle;spacingTop=-1;spacingLeft=3;spacingRight=3;rotatable=0;labelPosition=right;points=[];portConstraint=eastwest;strokeColor=inherit;" vertex="1" parent="2h4ST7UPdL0RUoZ8Nv_j-9">
          <mxGeometry y="78" width="210" height="8" as="geometry" />
        </mxCell>
        <mxCell id="2h4ST7UPdL0RUoZ8Nv_j-56" value="Admin" style="swimlane;fontStyle=1;align=center;verticalAlign=top;childLayout=stackLayout;horizontal=1;startSize=26;horizontalStack=0;resizeParent=1;resizeParentMax=0;resizeLast=0;collapsible=1;marginBottom=0;whiteSpace=wrap;html=1;" vertex="1" parent="1">
          <mxGeometry x="625" y="60" width="210" height="112" as="geometry" />
        </mxCell>
        <mxCell id="2h4ST7UPdL0RUoZ8Nv_j-58" value="" style="line;strokeWidth=1;fillColor=none;align=left;verticalAlign=middle;spacingTop=-1;spacingLeft=3;spacingRight=3;rotatable=0;labelPosition=right;points=[];portConstraint=eastwest;strokeColor=inherit;" vertex="1" parent="2h4ST7UPdL0RUoZ8Nv_j-56">
          <mxGeometry y="26" width="210" height="8" as="geometry" />
        </mxCell>
        <mxCell id="ntyKxeS2Ozoo8PNVDgXu-6" value="+ properties: List&amp;lt;Property&amp;gt;" style="text;strokeColor=none;fillColor=none;align=left;verticalAlign=top;spacingLeft=4;spacingRight=4;overflow=hidden;rotatable=0;points=[[0,0.5],[1,0.5]];portConstraint=eastwest;whiteSpace=wrap;html=1;" vertex="1" parent="2h4ST7UPdL0RUoZ8Nv_j-56">
          <mxGeometry y="34" width="210" height="26" as="geometry" />
        </mxCell>
        <mxCell id="2h4ST7UPdL0RUoZ8Nv_j-60" value="+ listPropertiesByCity()" style="text;strokeColor=none;fillColor=none;align=left;verticalAlign=top;spacingLeft=4;spacingRight=4;overflow=hidden;rotatable=0;points=[[0,0.5],[1,0.5]];portConstraint=eastwest;whiteSpace=wrap;html=1;" vertex="1" parent="2h4ST7UPdL0RUoZ8Nv_j-56">
          <mxGeometry y="60" width="210" height="26" as="geometry" />
        </mxCell>
        <mxCell id="2h4ST7UPdL0RUoZ8Nv_j-59" value="+ computeTotalRent(city)" style="text;strokeColor=none;fillColor=none;align=left;verticalAlign=top;spacingLeft=4;spacingRight=4;overflow=hidden;rotatable=0;points=[[0,0.5],[1,0.5]];portConstraint=eastwest;whiteSpace=wrap;html=1;" vertex="1" parent="2h4ST7UPdL0RUoZ8Nv_j-56">
          <mxGeometry y="86" width="210" height="26" as="geometry" />
        </mxCell>
        <mxCell id="ntyKxeS2Ozoo8PNVDgXu-2" value="LandLord" style="swimlane;fontStyle=1;align=center;verticalAlign=top;childLayout=stackLayout;horizontal=1;startSize=26;horizontalStack=0;resizeParent=1;resizeParentMax=0;resizeLast=0;collapsible=1;marginBottom=0;whiteSpace=wrap;html=1;" vertex="1" parent="1">
          <mxGeometry x="330" y="60" width="190" height="112" as="geometry" />
        </mxCell>
        <mxCell id="ntyKxeS2Ozoo8PNVDgXu-3" value="" style="line;strokeWidth=1;fillColor=none;align=left;verticalAlign=middle;spacingTop=-1;spacingLeft=3;spacingRight=3;rotatable=0;labelPosition=right;points=[];portConstraint=eastwest;strokeColor=inherit;" vertex="1" parent="ntyKxeS2Ozoo8PNVDgXu-2">
          <mxGeometry y="26" width="190" height="8" as="geometry" />
        </mxCell>
        <mxCell id="ntyKxeS2Ozoo8PNVDgXu-8" value="+ id: String" style="text;strokeColor=none;fillColor=none;align=left;verticalAlign=top;spacingLeft=4;spacingRight=4;overflow=hidden;rotatable=0;points=[[0,0.5],[1,0.5]];portConstraint=eastwest;whiteSpace=wrap;html=1;" vertex="1" parent="ntyKxeS2Ozoo8PNVDgXu-2">
          <mxGeometry y="34" width="190" height="26" as="geometry" />
        </mxCell>
        <mxCell id="ntyKxeS2Ozoo8PNVDgXu-7" value="+ name: String" style="text;strokeColor=none;fillColor=none;align=left;verticalAlign=top;spacingLeft=4;spacingRight=4;overflow=hidden;rotatable=0;points=[[0,0.5],[1,0.5]];portConstraint=eastwest;whiteSpace=wrap;html=1;" vertex="1" parent="ntyKxeS2Ozoo8PNVDgXu-2">
          <mxGeometry y="60" width="190" height="26" as="geometry" />
        </mxCell>
        <mxCell id="ntyKxeS2Ozoo8PNVDgXu-5" value="+ properties: List&amp;lt;Property&amp;gt;" style="text;strokeColor=none;fillColor=none;align=left;verticalAlign=top;spacingLeft=4;spacingRight=4;overflow=hidden;rotatable=0;points=[[0,0.5],[1,0.5]];portConstraint=eastwest;whiteSpace=wrap;html=1;" vertex="1" parent="ntyKxeS2Ozoo8PNVDgXu-2">
          <mxGeometry y="86" width="190" height="26" as="geometry" />
        </mxCell>
        <mxCell id="ntyKxeS2Ozoo8PNVDgXu-9" value="" style="endArrow=none;html=1;rounded=0;entryX=0.151;entryY=0.931;entryDx=0;entryDy=0;entryPerimeter=0;" edge="1" parent="1" target="2h4ST7UPdL0RUoZ8Nv_j-59">
          <mxGeometry width="50" height="50" relative="1" as="geometry">
            <mxPoint x="580" y="280" as="sourcePoint" />
            <mxPoint x="660" y="200" as="targetPoint" />
          </mxGeometry>
        </mxCell>
        <mxCell id="c6bD-oi2CYjYuXbBb8cj-1" value="&lt;font style=&quot;font-size: 20px;&quot; face=&quot;Garamond&quot;&gt;Properties Management System&lt;/font&gt;" style="text;html=1;align=center;verticalAlign=middle;whiteSpace=wrap;rounded=0;" vertex="1" parent="1">
          <mxGeometry x="281" y="9" width="299" height="30" as="geometry" />
        </mxCell>
      </root>
    </mxGraphModel>
  </diagram>
  <diagram id="KzoYpXHgttxb9t0jdFFZ" name="PMS">
    <mxGraphModel dx="1226" dy="661" grid="0" gridSize="10" guides="1" tooltips="1" connect="1" arrows="1" fold="1" page="1" pageScale="1" pageWidth="850" pageHeight="1100" background="#ffffff" math="0" shadow="0">
      <root>
        <mxCell id="0" />
        <mxCell id="1" parent="0" />
        <mxCell id="2F1UMRlRRNpZUnhSiPwA-5" value="&lt;font style=&quot;font-size: 14px;&quot;&gt;&lt;b style=&quot;background-color: light-dark(#ffffff, var(--ge-dark-color, #121212));&quot;&gt;Project&lt;/b&gt;&lt;/font&gt;" style="swimlane;fontStyle=0;childLayout=stackLayout;horizontal=1;startSize=26;fillColor=none;horizontalStack=0;resizeParent=1;resizeParentMax=0;resizeLast=0;collapsible=1;marginBottom=0;whiteSpace=wrap;html=1;" vertex="1" parent="1">
          <mxGeometry x="375" y="299" width="160" height="104" as="geometry" />
        </mxCell>
        <mxCell id="2F1UMRlRRNpZUnhSiPwA-6" value="+ projectID: String" style="text;strokeColor=none;fillColor=none;align=left;verticalAlign=top;spacingLeft=4;spacingRight=4;overflow=hidden;rotatable=0;points=[[0,0.5],[1,0.5]];portConstraint=eastwest;whiteSpace=wrap;html=1;" vertex="1" parent="2F1UMRlRRNpZUnhSiPwA-5">
          <mxGeometry y="26" width="160" height="26" as="geometry" />
        </mxCell>
        <mxCell id="2F1UMRlRRNpZUnhSiPwA-33" value="+ features: List&amp;lt;Feature&amp;gt;" style="text;strokeColor=none;fillColor=none;align=left;verticalAlign=top;spacingLeft=4;spacingRight=4;overflow=hidden;rotatable=0;points=[[0,0.5],[1,0.5]];portConstraint=eastwest;whiteSpace=wrap;html=1;" vertex="1" parent="2F1UMRlRRNpZUnhSiPwA-5">
          <mxGeometry y="52" width="160" height="26" as="geometry" />
        </mxCell>
        <mxCell id="XEV6MBalovQMX-ViUOwC-2" value="+ releases: List&amp;lt;Release&amp;gt;" style="text;strokeColor=none;fillColor=none;align=left;verticalAlign=top;spacingLeft=4;spacingRight=4;overflow=hidden;rotatable=0;points=[[0,0.5],[1,0.5]];portConstraint=eastwest;whiteSpace=wrap;html=1;" vertex="1" parent="2F1UMRlRRNpZUnhSiPwA-5">
          <mxGeometry y="78" width="160" height="26" as="geometry" />
        </mxCell>
        <mxCell id="2F1UMRlRRNpZUnhSiPwA-17" value="&lt;b&gt;&lt;font style=&quot;font-size: 14px;&quot;&gt;Developer&lt;/font&gt;&lt;/b&gt;" style="swimlane;fontStyle=0;childLayout=stackLayout;horizontal=1;startSize=26;fillColor=none;horizontalStack=0;resizeParent=1;resizeParentMax=0;resizeLast=0;collapsible=1;marginBottom=0;whiteSpace=wrap;html=1;" vertex="1" parent="1">
          <mxGeometry x="226" y="727" width="215" height="78" as="geometry" />
        </mxCell>
        <mxCell id="2F1UMRlRRNpZUnhSiPwA-18" value="+ devId: String" style="text;strokeColor=none;fillColor=none;align=left;verticalAlign=top;spacingLeft=4;spacingRight=4;overflow=hidden;rotatable=0;points=[[0,0.5],[1,0.5]];portConstraint=eastwest;whiteSpace=wrap;html=1;" vertex="1" parent="2F1UMRlRRNpZUnhSiPwA-17">
          <mxGeometry y="26" width="215" height="26" as="geometry" />
        </mxCell>
        <mxCell id="XEV6MBalovQMX-ViUOwC-5" value="+ assignedFeatures: List&amp;lt;Feature&amp;gt;" style="text;strokeColor=none;fillColor=none;align=left;verticalAlign=top;spacingLeft=4;spacingRight=4;overflow=hidden;rotatable=0;points=[[0,0.5],[1,0.5]];portConstraint=eastwest;whiteSpace=wrap;html=1;" vertex="1" parent="2F1UMRlRRNpZUnhSiPwA-17">
          <mxGeometry y="52" width="215" height="26" as="geometry" />
        </mxCell>
        <mxCell id="2F1UMRlRRNpZUnhSiPwA-24" value="&lt;b&gt;&lt;font style=&quot;font-size: 14px;&quot;&gt;Release&lt;/font&gt;&lt;/b&gt;" style="swimlane;fontStyle=0;childLayout=stackLayout;horizontal=1;startSize=26;fillColor=none;horizontalStack=0;resizeParent=1;resizeParentMax=0;resizeLast=0;collapsible=1;marginBottom=0;whiteSpace=wrap;html=1;" vertex="1" parent="1">
          <mxGeometry x="516" y="557" width="160" height="78" as="geometry" />
        </mxCell>
        <mxCell id="2F1UMRlRRNpZUnhSiPwA-27" value="+ releaseDate: Date" style="text;strokeColor=none;fillColor=none;align=left;verticalAlign=top;spacingLeft=4;spacingRight=4;overflow=hidden;rotatable=0;points=[[0,0.5],[1,0.5]];portConstraint=eastwest;whiteSpace=wrap;html=1;" vertex="1" parent="2F1UMRlRRNpZUnhSiPwA-24">
          <mxGeometry y="26" width="160" height="26" as="geometry" />
        </mxCell>
        <mxCell id="2F1UMRlRRNpZUnhSiPwA-39" value="+ features: List&amp;lt;Feature&amp;gt;" style="text;strokeColor=none;fillColor=none;align=left;verticalAlign=top;spacingLeft=4;spacingRight=4;overflow=hidden;rotatable=0;points=[[0,0.5],[1,0.5]];portConstraint=eastwest;whiteSpace=wrap;html=1;" vertex="1" parent="2F1UMRlRRNpZUnhSiPwA-24">
          <mxGeometry y="52" width="160" height="26" as="geometry" />
        </mxCell>
        <mxCell id="2F1UMRlRRNpZUnhSiPwA-28" value="&lt;b&gt;&lt;font style=&quot;font-size: 14px;&quot;&gt;Feature&lt;/font&gt;&lt;/b&gt;" style="swimlane;fontStyle=0;childLayout=stackLayout;horizontal=1;startSize=26;fillColor=none;horizontalStack=0;resizeParent=1;resizeParentMax=0;resizeLast=0;collapsible=1;marginBottom=0;whiteSpace=wrap;html=1;" vertex="1" parent="1">
          <mxGeometry x="250" y="553" width="170" height="78" as="geometry" />
        </mxCell>
        <mxCell id="XEV6MBalovQMX-ViUOwC-3" value="+ developer: Developer" style="text;strokeColor=none;fillColor=none;align=left;verticalAlign=top;spacingLeft=4;spacingRight=4;overflow=hidden;rotatable=0;points=[[0,0.5],[1,0.5]];portConstraint=eastwest;whiteSpace=wrap;html=1;" vertex="1" parent="2F1UMRlRRNpZUnhSiPwA-28">
          <mxGeometry y="26" width="170" height="26" as="geometry" />
        </mxCell>
        <mxCell id="XEV6MBalovQMX-ViUOwC-4" value="+ estimatedTimeRemaining" style="text;strokeColor=none;fillColor=none;align=left;verticalAlign=top;spacingLeft=4;spacingRight=4;overflow=hidden;rotatable=0;points=[[0,0.5],[1,0.5]];portConstraint=eastwest;whiteSpace=wrap;html=1;" vertex="1" parent="2F1UMRlRRNpZUnhSiPwA-28">
          <mxGeometry y="52" width="170" height="26" as="geometry" />
        </mxCell>
        <mxCell id="XEV6MBalovQMX-ViUOwC-7" value="&lt;font style=&quot;font-size: 20px;&quot; face=&quot;Garamond&quot;&gt;&lt;b&gt;Project Management Tracking System&lt;/b&gt;&lt;/font&gt;" style="text;html=1;align=center;verticalAlign=middle;whiteSpace=wrap;rounded=0;" vertex="1" parent="1">
          <mxGeometry x="250" y="230" width="410" height="40" as="geometry" />
        </mxCell>
        <mxCell id="tbwC6HXvfrMajjPpQdui-18" value="" style="endArrow=classic;html=1;rounded=0;exitX=0.535;exitY=-0.085;exitDx=0;exitDy=0;exitPerimeter=0;entryX=0.554;entryY=1.077;entryDx=0;entryDy=0;entryPerimeter=0;" edge="1" parent="1" source="2F1UMRlRRNpZUnhSiPwA-17" target="XEV6MBalovQMX-ViUOwC-4">
          <mxGeometry width="50" height="50" relative="1" as="geometry">
            <mxPoint x="536" y="533" as="sourcePoint" />
            <mxPoint x="252" y="649" as="targetPoint" />
          </mxGeometry>
        </mxCell>
        <mxCell id="tbwC6HXvfrMajjPpQdui-20" value="" style="endArrow=classic;html=1;rounded=0;exitX=0.439;exitY=1.046;exitDx=0;exitDy=0;exitPerimeter=0;entryX=0.62;entryY=-0.041;entryDx=0;entryDy=0;entryPerimeter=0;" edge="1" parent="1" source="XEV6MBalovQMX-ViUOwC-2" target="2F1UMRlRRNpZUnhSiPwA-28">
          <mxGeometry width="50" height="50" relative="1" as="geometry">
            <mxPoint x="536" y="533" as="sourcePoint" />
            <mxPoint x="586" y="483" as="targetPoint" />
          </mxGeometry>
        </mxCell>
        <mxCell id="tbwC6HXvfrMajjPpQdui-21" value="" style="endArrow=classic;html=1;rounded=0;entryX=1;entryY=0.5;entryDx=0;entryDy=0;exitX=-0.042;exitY=0.262;exitDx=0;exitDy=0;exitPerimeter=0;" edge="1" parent="1" source="2F1UMRlRRNpZUnhSiPwA-27" target="XEV6MBalovQMX-ViUOwC-3">
          <mxGeometry width="50" height="50" relative="1" as="geometry">
            <mxPoint x="536" y="533" as="sourcePoint" />
            <mxPoint x="586" y="483" as="targetPoint" />
          </mxGeometry>
        </mxCell>
        <mxCell id="tbwC6HXvfrMajjPpQdui-35" value="&lt;font style=&quot;font-size: 14px;&quot;&gt;1&lt;/font&gt;" style="text;html=1;align=center;verticalAlign=middle;whiteSpace=wrap;rounded=0;" vertex="1" parent="1">
          <mxGeometry x="468" y="408" width="60" height="30" as="geometry" />
        </mxCell>
        <mxCell id="tbwC6HXvfrMajjPpQdui-44" value="&lt;font style=&quot;font-size: 14px;&quot;&gt;1..*&lt;/font&gt;" style="text;html=1;align=center;verticalAlign=middle;whiteSpace=wrap;rounded=0;" vertex="1" parent="1">
          <mxGeometry x="545" y="512" width="60" height="30" as="geometry" />
        </mxCell>
        <mxCell id="tbwC6HXvfrMajjPpQdui-46" value="" style="endArrow=classic;html=1;rounded=0;exitX=0.594;exitY=1.009;exitDx=0;exitDy=0;exitPerimeter=0;entryX=0.377;entryY=0.008;entryDx=0;entryDy=0;entryPerimeter=0;" edge="1" parent="1" source="XEV6MBalovQMX-ViUOwC-2" target="2F1UMRlRRNpZUnhSiPwA-24">
          <mxGeometry width="50" height="50" relative="1" as="geometry">
            <mxPoint x="508" y="490" as="sourcePoint" />
            <mxPoint x="558" y="440" as="targetPoint" />
          </mxGeometry>
        </mxCell>
        <mxCell id="tbwC6HXvfrMajjPpQdui-48" value="&lt;font style=&quot;font-size: 14px;&quot;&gt;1&lt;/font&gt;" style="text;html=1;align=center;verticalAlign=middle;whiteSpace=wrap;rounded=0;" vertex="1" parent="1">
          <mxGeometry x="293" y="700" width="60" height="30" as="geometry" />
        </mxCell>
        <mxCell id="tbwC6HXvfrMajjPpQdui-53" value="&lt;font style=&quot;font-size: 14px;&quot;&gt;0..*&lt;/font&gt;" style="text;html=1;align=center;verticalAlign=middle;whiteSpace=wrap;rounded=0;" vertex="1" parent="1">
          <mxGeometry x="293" y="635" width="60" height="30" as="geometry" />
        </mxCell>
        <mxCell id="tbwC6HXvfrMajjPpQdui-54" value="&lt;font style=&quot;font-size: 14px;&quot;&gt;1&lt;/font&gt;" style="text;html=1;align=center;verticalAlign=middle;whiteSpace=wrap;rounded=0;" vertex="1" parent="1">
          <mxGeometry x="378" y="408" width="60" height="30" as="geometry" />
        </mxCell>
        <mxCell id="tbwC6HXvfrMajjPpQdui-55" value="&lt;font style=&quot;font-size: 14px;&quot;&gt;1..*&lt;/font&gt;" style="text;html=1;align=center;verticalAlign=middle;whiteSpace=wrap;rounded=0;" vertex="1" parent="1">
          <mxGeometry x="318" y="512" width="60" height="30" as="geometry" />
        </mxCell>
        <mxCell id="tbwC6HXvfrMajjPpQdui-56" value="&lt;font style=&quot;font-size: 14px;&quot;&gt;1&lt;/font&gt;" style="text;html=1;align=center;verticalAlign=middle;whiteSpace=wrap;rounded=0;" vertex="1" parent="1">
          <mxGeometry x="472" y="557" width="60" height="30" as="geometry" />
        </mxCell>
        <mxCell id="tbwC6HXvfrMajjPpQdui-58" value="&lt;font style=&quot;font-size: 14px;&quot;&gt;1..*&lt;/font&gt;" style="text;html=1;align=center;verticalAlign=middle;whiteSpace=wrap;rounded=0;" vertex="1" parent="1">
          <mxGeometry x="408" y="561" width="60" height="30" as="geometry" />
        </mxCell>
      </root>
    </mxGraphModel>
  </diagram>
  <diagram id="sLftXwQRaRyVrQZE3ggf" name="Page-4">
    <mxGraphModel dx="1042" dy="562" grid="1" gridSize="10" guides="1" tooltips="1" connect="1" arrows="1" fold="1" page="1" pageScale="1" pageWidth="850" pageHeight="1100" math="0" shadow="0">
      <root>
        <mxCell id="0" />
        <mxCell id="1" parent="0" />
        <mxCell id="jOSXjAp3V9I7zQSuV5pW-1" value="&lt;font style=&quot;font-size: 16px;&quot; face=&quot;Garamond&quot;&gt;User&lt;/font&gt;" style="shape=umlActor;verticalLabelPosition=bottom;verticalAlign=top;html=1;outlineConnect=0;" vertex="1" parent="1">
          <mxGeometry x="80" y="160" width="70" height="120" as="geometry" />
        </mxCell>
        <mxCell id="jOSXjAp3V9I7zQSuV5pW-2" value="&lt;font style=&quot;font-size: 14px;&quot; face=&quot;Garamond&quot;&gt;Check Balance&lt;/font&gt;" style="ellipse;whiteSpace=wrap;html=1;" vertex="1" parent="1">
          <mxGeometry x="320" y="80" width="160" height="60" as="geometry" />
        </mxCell>
        <mxCell id="jOSXjAp3V9I7zQSuV5pW-3" value="&lt;span style=&quot;line-height: 115%;&quot;&gt;&lt;font style=&quot;font-size: 14px;&quot; face=&quot;Garamond&quot;&gt;Withdraw Money&lt;/font&gt;&lt;/span&gt;" style="ellipse;whiteSpace=wrap;html=1;" vertex="1" parent="1">
          <mxGeometry x="320" y="200" width="160" height="80" as="geometry" />
        </mxCell>
        <mxCell id="jOSXjAp3V9I7zQSuV5pW-4" value="&lt;span style=&quot;line-height: 115%;&quot;&gt;&lt;font style=&quot;font-size: 14px;&quot; face=&quot;Garamond&quot;&gt;Deposit Money&lt;/font&gt;&lt;/span&gt;" style="ellipse;whiteSpace=wrap;html=1;" vertex="1" parent="1">
          <mxGeometry x="320" y="320" width="160" height="80" as="geometry" />
        </mxCell>
        <mxCell id="jOSXjAp3V9I7zQSuV5pW-6" value="&lt;font style=&quot;font-size: 16px;&quot; face=&quot;Garamond&quot;&gt;Bank System&lt;/font&gt;" style="sketch=0;outlineConnect=0;fontColor=#232F3E;gradientColor=none;strokeColor=#232F3E;fillColor=#ffffff;dashed=0;verticalLabelPosition=bottom;verticalAlign=top;align=center;html=1;fontSize=12;fontStyle=0;aspect=fixed;shape=mxgraph.aws4.resourceIcon;resIcon=mxgraph.aws4.bank;" vertex="1" parent="1">
          <mxGeometry x="650" y="140" width="140" height="140" as="geometry" />
        </mxCell>
        <mxCell id="jOSXjAp3V9I7zQSuV5pW-9" value="" style="endArrow=classic;html=1;rounded=0;entryX=0.013;entryY=0.763;entryDx=0;entryDy=0;entryPerimeter=0;" edge="1" parent="1" source="jOSXjAp3V9I7zQSuV5pW-1" target="jOSXjAp3V9I7zQSuV5pW-2">
          <mxGeometry width="50" height="50" relative="1" as="geometry">
            <mxPoint x="170" y="200" as="sourcePoint" />
            <mxPoint x="220" y="150" as="targetPoint" />
          </mxGeometry>
        </mxCell>
        <mxCell id="jOSXjAp3V9I7zQSuV5pW-10" value="" style="endArrow=classic;html=1;rounded=0;entryX=0;entryY=0.5;entryDx=0;entryDy=0;" edge="1" parent="1" source="jOSXjAp3V9I7zQSuV5pW-1" target="jOSXjAp3V9I7zQSuV5pW-3">
          <mxGeometry width="50" height="50" relative="1" as="geometry">
            <mxPoint x="160" y="235" as="sourcePoint" />
            <mxPoint x="210" y="185" as="targetPoint" />
          </mxGeometry>
        </mxCell>
        <mxCell id="jOSXjAp3V9I7zQSuV5pW-11" value="" style="endArrow=classic;html=1;rounded=0;entryX=-0.002;entryY=0.363;entryDx=0;entryDy=0;entryPerimeter=0;" edge="1" parent="1" source="jOSXjAp3V9I7zQSuV5pW-1" target="jOSXjAp3V9I7zQSuV5pW-4">
          <mxGeometry width="50" height="50" relative="1" as="geometry">
            <mxPoint x="160" y="260" as="sourcePoint" />
            <mxPoint x="210" y="210" as="targetPoint" />
          </mxGeometry>
        </mxCell>
        <mxCell id="jOSXjAp3V9I7zQSuV5pW-13" value="&lt;font style=&quot;font-size: 18px;&quot; face=&quot;Garamond&quot;&gt;&lt;b style=&quot;&quot;&gt;ATM SYSTEM&lt;/b&gt;&lt;/font&gt;" style="text;html=1;align=center;verticalAlign=middle;whiteSpace=wrap;rounded=0;" vertex="1" parent="1">
          <mxGeometry x="160" y="10" width="460" height="30" as="geometry" />
        </mxCell>
        <mxCell id="jOSXjAp3V9I7zQSuV5pW-14" value="" style="endArrow=classic;html=1;rounded=0;" edge="1" parent="1" target="jOSXjAp3V9I7zQSuV5pW-6">
          <mxGeometry width="50" height="50" relative="1" as="geometry">
            <mxPoint x="490" y="110" as="sourcePoint" />
            <mxPoint x="580" y="240" as="targetPoint" />
          </mxGeometry>
        </mxCell>
        <mxCell id="jOSXjAp3V9I7zQSuV5pW-15" value="" style="endArrow=classic;html=1;rounded=0;" edge="1" parent="1" target="jOSXjAp3V9I7zQSuV5pW-6">
          <mxGeometry width="50" height="50" relative="1" as="geometry">
            <mxPoint x="490" y="240" as="sourcePoint" />
            <mxPoint x="580" y="240" as="targetPoint" />
          </mxGeometry>
        </mxCell>
        <mxCell id="jOSXjAp3V9I7zQSuV5pW-16" value="" style="endArrow=classic;html=1;rounded=0;exitX=1.053;exitY=0.442;exitDx=0;exitDy=0;exitPerimeter=0;" edge="1" parent="1" source="jOSXjAp3V9I7zQSuV5pW-4" target="jOSXjAp3V9I7zQSuV5pW-6">
          <mxGeometry width="50" height="50" relative="1" as="geometry">
            <mxPoint x="500" y="350" as="sourcePoint" />
            <mxPoint x="580" y="240" as="targetPoint" />
          </mxGeometry>
        </mxCell>
      </root>
    </mxGraphModel>
  </diagram>
  <diagram name="ATM" id="JBJoZdMymf_xEZi5roBF">
    <mxGraphModel dx="1042" dy="562" grid="0" gridSize="10" guides="1" tooltips="1" connect="1" arrows="1" fold="1" page="1" pageScale="1" pageWidth="850" pageHeight="1100" math="0" shadow="0">
      <root>
        <mxCell id="MnmszOXQ6Tf4L7HJABnH-0" />
        <mxCell id="MnmszOXQ6Tf4L7HJABnH-1" parent="MnmszOXQ6Tf4L7HJABnH-0" />
        <mxCell id="MnmszOXQ6Tf4L7HJABnH-2" value="&lt;font style=&quot;font-size: 16px;&quot; face=&quot;Garamond&quot;&gt;User&lt;/font&gt;" style="shape=umlActor;verticalLabelPosition=bottom;verticalAlign=top;html=1;outlineConnect=0;" vertex="1" parent="MnmszOXQ6Tf4L7HJABnH-1">
          <mxGeometry x="80" y="160" width="70" height="120" as="geometry" />
        </mxCell>
        <mxCell id="MnmszOXQ6Tf4L7HJABnH-3" value="&lt;font style=&quot;font-size: 14px;&quot; face=&quot;Garamond&quot;&gt;Enter Pin&lt;/font&gt;" style="ellipse;whiteSpace=wrap;html=1;" vertex="1" parent="MnmszOXQ6Tf4L7HJABnH-1">
          <mxGeometry x="320" y="80" width="160" height="60" as="geometry" />
        </mxCell>
        <mxCell id="MnmszOXQ6Tf4L7HJABnH-4" value="&lt;span style=&quot;line-height: 115%;&quot;&gt;&lt;font style=&quot;font-size: 14px;&quot; face=&quot;Garamond&quot;&gt;Withdraw Money&lt;/font&gt;&lt;/span&gt;" style="ellipse;whiteSpace=wrap;html=1;" vertex="1" parent="MnmszOXQ6Tf4L7HJABnH-1">
          <mxGeometry x="320" y="350" width="160" height="80" as="geometry" />
        </mxCell>
        <mxCell id="MnmszOXQ6Tf4L7HJABnH-6" value="&lt;font style=&quot;font-size: 16px;&quot; face=&quot;Garamond&quot;&gt;Bank System&lt;/font&gt;" style="sketch=0;outlineConnect=0;fontColor=#232F3E;gradientColor=none;strokeColor=#232F3E;fillColor=#ffffff;dashed=0;verticalLabelPosition=bottom;verticalAlign=top;align=center;html=1;fontSize=12;fontStyle=0;aspect=fixed;shape=mxgraph.aws4.resourceIcon;resIcon=mxgraph.aws4.bank;" vertex="1" parent="MnmszOXQ6Tf4L7HJABnH-1">
          <mxGeometry x="650" y="140" width="140" height="140" as="geometry" />
        </mxCell>
        <mxCell id="MnmszOXQ6Tf4L7HJABnH-7" value="" style="endArrow=classic;html=1;rounded=0;entryX=0.013;entryY=0.763;entryDx=0;entryDy=0;entryPerimeter=0;" edge="1" parent="MnmszOXQ6Tf4L7HJABnH-1" source="MnmszOXQ6Tf4L7HJABnH-2" target="MnmszOXQ6Tf4L7HJABnH-3">
          <mxGeometry width="50" height="50" relative="1" as="geometry">
            <mxPoint x="170" y="200" as="sourcePoint" />
            <mxPoint x="220" y="150" as="targetPoint" />
          </mxGeometry>
        </mxCell>
        <mxCell id="MnmszOXQ6Tf4L7HJABnH-8" value="" style="endArrow=classic;html=1;rounded=0;entryX=0;entryY=0.5;entryDx=0;entryDy=0;" edge="1" parent="MnmszOXQ6Tf4L7HJABnH-1" source="MnmszOXQ6Tf4L7HJABnH-2" target="MnmszOXQ6Tf4L7HJABnH-4">
          <mxGeometry width="50" height="50" relative="1" as="geometry">
            <mxPoint x="160" y="235" as="sourcePoint" />
            <mxPoint x="210" y="185" as="targetPoint" />
          </mxGeometry>
        </mxCell>
        <mxCell id="MnmszOXQ6Tf4L7HJABnH-9" value="" style="endArrow=classic;html=1;rounded=0;exitX=1;exitY=0.5;exitDx=0;exitDy=0;" edge="1" parent="MnmszOXQ6Tf4L7HJABnH-1" source="MnmszOXQ6Tf4L7HJABnH-4" target="MnmszOXQ6Tf4L7HJABnH-6">
          <mxGeometry width="50" height="50" relative="1" as="geometry">
            <mxPoint x="160" y="260" as="sourcePoint" />
            <mxPoint x="319.68000000000006" y="489.03999999999996" as="targetPoint" />
          </mxGeometry>
        </mxCell>
        <mxCell id="MnmszOXQ6Tf4L7HJABnH-10" value="&lt;font style=&quot;font-size: 18px;&quot; face=&quot;Garamond&quot;&gt;&lt;b style=&quot;&quot;&gt;ATM SYSTEM&lt;/b&gt;&lt;/font&gt;" style="text;html=1;align=center;verticalAlign=middle;whiteSpace=wrap;rounded=0;" vertex="1" parent="MnmszOXQ6Tf4L7HJABnH-1">
          <mxGeometry x="160" y="10" width="460" height="30" as="geometry" />
        </mxCell>
        <mxCell id="MnmszOXQ6Tf4L7HJABnH-11" value="" style="endArrow=classic;html=1;rounded=0;" edge="1" parent="MnmszOXQ6Tf4L7HJABnH-1" target="MnmszOXQ6Tf4L7HJABnH-6">
          <mxGeometry width="50" height="50" relative="1" as="geometry">
            <mxPoint x="490" y="110" as="sourcePoint" />
            <mxPoint x="580" y="240" as="targetPoint" />
          </mxGeometry>
        </mxCell>
        <mxCell id="MnmszOXQ6Tf4L7HJABnH-12" value="" style="endArrow=classic;html=1;rounded=0;exitX=1;exitY=0.5;exitDx=0;exitDy=0;" edge="1" parent="MnmszOXQ6Tf4L7HJABnH-1" target="MnmszOXQ6Tf4L7HJABnH-6" source="91voS4e3ZfWsKN0oWIe1-1">
          <mxGeometry width="50" height="50" relative="1" as="geometry">
            <mxPoint x="490" y="240" as="sourcePoint" />
            <mxPoint x="580" y="240" as="targetPoint" />
          </mxGeometry>
        </mxCell>
        <mxCell id="MnmszOXQ6Tf4L7HJABnH-13" value="" style="endArrow=classic;html=1;rounded=0;exitX=1.003;exitY=0.318;exitDx=0;exitDy=0;exitPerimeter=0;" edge="1" parent="MnmszOXQ6Tf4L7HJABnH-1" source="91voS4e3ZfWsKN0oWIe1-0" target="MnmszOXQ6Tf4L7HJABnH-6">
          <mxGeometry width="50" height="50" relative="1" as="geometry">
            <mxPoint x="488.48" y="495.3599999999999" as="sourcePoint" />
            <mxPoint x="580" y="240" as="targetPoint" />
          </mxGeometry>
        </mxCell>
        <mxCell id="91voS4e3ZfWsKN0oWIe1-0" value="&lt;span style=&quot;line-height: 115%;&quot;&gt;&lt;font style=&quot;font-size: 14px;&quot; face=&quot;Garamond&quot;&gt;Enter Amount&lt;/font&gt;&lt;/span&gt;" style="ellipse;whiteSpace=wrap;html=1;" vertex="1" parent="MnmszOXQ6Tf4L7HJABnH-1">
          <mxGeometry x="320" y="250" width="160" height="80" as="geometry" />
        </mxCell>
        <mxCell id="91voS4e3ZfWsKN0oWIe1-1" value="&lt;span style=&quot;line-height: 115%;&quot;&gt;&lt;font style=&quot;font-size: 14px;&quot; face=&quot;Garamond&quot;&gt;Selects the Account&lt;/font&gt;&lt;/span&gt;" style="ellipse;whiteSpace=wrap;html=1;" vertex="1" parent="MnmszOXQ6Tf4L7HJABnH-1">
          <mxGeometry x="320" y="150" width="160" height="80" as="geometry" />
        </mxCell>
        <mxCell id="91voS4e3ZfWsKN0oWIe1-2" value="" style="endArrow=classic;html=1;rounded=0;entryX=0.033;entryY=0.628;entryDx=0;entryDy=0;entryPerimeter=0;" edge="1" parent="MnmszOXQ6Tf4L7HJABnH-1" source="MnmszOXQ6Tf4L7HJABnH-2" target="91voS4e3ZfWsKN0oWIe1-1">
          <mxGeometry width="50" height="50" relative="1" as="geometry">
            <mxPoint x="400" y="320" as="sourcePoint" />
            <mxPoint x="450" y="270" as="targetPoint" />
          </mxGeometry>
        </mxCell>
        <mxCell id="91voS4e3ZfWsKN0oWIe1-3" value="" style="endArrow=classic;html=1;rounded=0;entryX=-0.002;entryY=0.378;entryDx=0;entryDy=0;entryPerimeter=0;" edge="1" parent="MnmszOXQ6Tf4L7HJABnH-1" source="MnmszOXQ6Tf4L7HJABnH-2" target="91voS4e3ZfWsKN0oWIe1-0">
          <mxGeometry width="50" height="50" relative="1" as="geometry">
            <mxPoint x="400" y="320" as="sourcePoint" />
            <mxPoint x="450" y="270" as="targetPoint" />
          </mxGeometry>
        </mxCell>
      </root>
    </mxGraphModel>
  </diagram>
</mxfile>
